<svg width="95" height="115" viewBox="0 0 95 115" fill="none" xmlns="http://www.w3.org/2000/svg">
<g filter="url(#filter0_f_2_426)">
<path d="M19.2509 102H16.5509V91.5H24.8759V93.6H19.2509V96.075H23.6759V98.175H19.2509V102ZM25.9259 91.5H32.2259C33.2759 91.5 34.0359 91.74 34.5059 92.22C34.9859 92.69 35.2259 93.45 35.2259 94.5V95.85C35.2259 96.68 35.0859 97.325 34.8059 97.785C34.5359 98.245 34.1009 98.55 33.5009 98.7L35.3759 102H32.4509L30.7259 98.85H28.6259V102H25.9259V91.5ZM32.5259 94.5C32.5259 93.9 32.2259 93.6 31.6259 93.6H28.6259V96.75H31.6259C32.2259 96.75 32.5259 96.45 32.5259 95.85V94.5ZM38.5968 102H35.6718L39.6468 91.5H42.6468L46.6218 102H43.6968L43.0218 100.125H39.2718L38.5968 102ZM39.9468 98.175H42.3468L41.1468 94.65L39.9468 98.175Z" fill="white"/>
<path d="M55.0212 91.5L56.8212 98.25L58.3962 91.5H61.3212L58.4712 102H55.6212L53.8212 95.475L52.0212 102H49.1712L46.3212 91.5H49.2462L50.8212 98.25L52.6212 91.5H55.0212ZM70.4032 102H62.0782V91.5H70.4032V93.6H64.7782V95.625H69.2032V97.725H64.7782V99.9H70.4032V102ZM71.5997 91.5H77.5997C78.5797 91.5 79.2997 91.725 79.7597 92.175C80.2197 92.615 80.4497 93.29 80.4497 94.2C80.4497 94.8 80.3197 95.29 80.0597 95.67C79.7997 96.04 79.4797 96.3 79.0997 96.45C79.9097 96.67 80.4597 97.21 80.7497 98.07C80.8497 98.38 80.8997 98.74 80.8997 99.15C80.8997 100.13 80.6697 100.85 80.2097 101.31C79.7497 101.77 79.0297 102 78.0497 102H71.5997V91.5ZM78.1997 98.7C78.1997 98.1 77.8997 97.8 77.2997 97.8H74.2997V99.9H77.2997C77.8997 99.9 78.1997 99.6 78.1997 99V98.7ZM77.7497 94.5C77.7497 93.9 77.4497 93.6 76.8497 93.6H74.2997V95.7H76.8497C77.4497 95.7 77.7497 95.4 77.7497 94.8V94.5Z" fill="#E2B228"/>
<g filter="url(#filter1_d_2_426)">
<circle cx="47.4747" cy="47.5" r="32.5" stroke="white" stroke-linecap="round" stroke-dasharray="1 5" shape-rendering="crispEdges"/>
</g>
<path d="M47.4873 81.9748C40.6664 81.9748 33.9986 79.9521 28.3272 76.1626C22.6558 72.3731 18.2354 66.9869 15.6252 60.6851C13.0149 54.3834 12.3319 47.4491 13.6626 40.7592C14.9933 34.0693 18.2779 27.9243 23.1011 23.1011C27.9242 18.278 34.0693 14.9934 40.7592 13.6627C47.4491 12.332 54.3834 13.0149 60.6851 15.6252C66.9868 18.2355 72.373 22.6558 76.1626 28.3272C79.9521 33.9986 81.9747 40.6664 81.9747 47.4874L78.5203 47.4874C78.5203 41.3496 76.7003 35.3497 73.2903 30.2464C69.8804 25.143 65.0337 21.1655 59.3632 18.8166C53.6926 16.4678 47.4529 15.8533 41.4331 17.0507C35.4133 18.2481 29.8838 21.2037 25.5437 25.5437C21.2037 29.8838 18.2481 35.4133 17.0507 41.4331C15.8532 47.453 16.4678 53.6927 18.8166 59.3632C21.1654 65.0337 25.143 69.8804 30.2463 73.2904C35.3497 76.7003 41.3496 78.5204 47.4873 78.5204L47.4873 81.9748Z" fill="#E2B228"/>
<circle cx="72" cy="68" r="3" fill="white"/>
<path d="M44.375 64H35.375V29H63.125V36H44.375V44.25H59.125V51.25H44.375V64Z" fill="#E2B228"/>
<mask id="mask0_2_426" style="mask-type:alpha" maskUnits="userSpaceOnUse" x="13" y="13" width="69" height="69">
<circle cx="47.4747" cy="47.5" r="32.5" stroke="white" stroke-linecap="round" stroke-dasharray="1 5"/>
<path d="M47.4873 81.9748C40.6664 81.9748 33.9986 79.9521 28.3272 76.1626C22.6558 72.3731 18.2354 66.9869 15.6252 60.6851C13.0149 54.3834 12.3319 47.4491 13.6626 40.7592C14.9933 34.0693 18.2779 27.9243 23.1011 23.1011C27.9242 18.278 34.0693 14.9934 40.7592 13.6627C47.4491 12.332 54.3834 13.0149 60.6851 15.6252C66.9868 18.2355 72.373 22.6558 76.1626 28.3272C79.9521 33.9986 81.9747 40.6664 81.9747 47.4874L78.5203 47.4874C78.5203 41.3496 76.7003 35.3497 73.2903 30.2464C69.8804 25.143 65.0337 21.1655 59.3632 18.8166C53.6926 16.4678 47.4529 15.8533 41.4331 17.0507C35.4133 18.2481 29.8838 21.2037 25.5437 25.5437C21.2037 29.8838 18.2481 35.4133 17.0507 41.4331C15.8532 47.453 16.4678 53.6927 18.8166 59.3632C21.1654 65.0337 25.143 69.8804 30.2463 73.2904C35.3497 76.7003 41.3496 78.5204 47.4873 78.5204L47.4873 81.9748Z" fill="#E2B228"/>
<circle cx="72" cy="68" r="3" fill="white"/>
<path d="M44.375 64H35.375V29H63.125V36H44.375V44.25H59.125V51.25H44.375V64Z" fill="#E2B228"/>
</mask>
<g mask="url(#mask0_2_426)">
</g>
</g>
<path d="M7.05123 106H3.27123V91.3H14.9262V94.24H7.05123V97.705H13.2462V100.645H7.05123V106ZM16.3962 91.3H25.2162C26.6862 91.3 27.7502 91.636 28.4082 92.308C29.0802 92.966 29.4162 94.03 29.4162 95.5V97.39C29.4162 98.552 29.2202 99.455 28.8282 100.099C28.4502 100.743 27.8412 101.17 27.0012 101.38L29.6262 106H25.5312L23.1162 101.59H20.1762V106H16.3962V91.3ZM25.6362 95.5C25.6362 94.66 25.2162 94.24 24.3762 94.24H20.1762V98.65H24.3762C25.2162 98.65 25.6362 98.23 25.6362 97.39V95.5ZM34.1355 106H30.0405L35.6055 91.3H39.8055L45.3705 106H41.2755L40.3305 103.375H35.0805L34.1355 106ZM36.0255 100.645H39.3855L37.7055 95.71L36.0255 100.645Z" fill="white"/>
<path d="M57.1297 91.3L59.6497 100.75L61.8547 91.3H65.9497L61.9597 106H57.9697L55.4497 96.865L52.9297 106H48.9397L44.9497 91.3H49.0447L51.2497 100.75L53.7697 91.3H57.1297ZM78.6645 106H67.0095V91.3H78.6645V94.24H70.7895V97.075H76.9845V100.015H70.7895V103.06H78.6645V106ZM80.3396 91.3H88.7396C90.1116 91.3 91.1196 91.615 91.7636 92.245C92.4076 92.861 92.7296 93.806 92.7296 95.08C92.7296 95.92 92.5476 96.606 92.1836 97.138C91.8196 97.656 91.3716 98.02 90.8396 98.23C91.9736 98.538 92.7436 99.294 93.1496 100.498C93.2896 100.932 93.3596 101.436 93.3596 102.01C93.3596 103.382 93.0376 104.39 92.3936 105.034C91.7496 105.678 90.7416 106 89.3696 106H80.3396V91.3ZM89.5796 101.38C89.5796 100.54 89.1596 100.12 88.3196 100.12H84.1196V103.06H88.3196C89.1596 103.06 89.5796 102.64 89.5796 101.8V101.38ZM88.9496 95.5C88.9496 94.66 88.5296 94.24 87.6896 94.24H84.1196V97.18H87.6896C88.5296 97.18 88.9496 96.76 88.9496 95.92V95.5Z" fill="#E2B228"/>
<g filter="url(#filter2_d_2_426)">
<circle cx="47.4747" cy="47.5" r="32.5" stroke="white" stroke-linecap="round" stroke-dasharray="1 5" shape-rendering="crispEdges"/>
</g>
<path d="M47.4873 81.9748C40.6664 81.9748 33.9986 79.9521 28.3272 76.1626C22.6558 72.3731 18.2354 66.9869 15.6252 60.6851C13.0149 54.3834 12.3319 47.4491 13.6626 40.7592C14.9933 34.0693 18.2779 27.9243 23.1011 23.1011C27.9242 18.278 34.0693 14.9934 40.7592 13.6627C47.4491 12.332 54.3834 13.0149 60.6851 15.6252C66.9868 18.2355 72.373 22.6558 76.1626 28.3272C79.9521 33.9986 81.9747 40.6664 81.9747 47.4874L78.5203 47.4874C78.5203 41.3496 76.7003 35.3497 73.2903 30.2464C69.8804 25.143 65.0337 21.1655 59.3632 18.8166C53.6926 16.4678 47.4529 15.8533 41.4331 17.0507C35.4133 18.2481 29.8838 21.2037 25.5437 25.5437C21.2037 29.8838 18.2481 35.4133 17.0507 41.4331C15.8532 47.453 16.4678 53.6927 18.8166 59.3632C21.1654 65.0337 25.143 69.8804 30.2463 73.2904C35.3497 76.7003 41.3496 78.5204 47.4873 78.5204L47.4873 81.9748Z" fill="#E2B228"/>
<circle cx="72" cy="68" r="3" fill="white"/>
<path d="M44.375 64H35.375V29H63.125V36H44.375V44.25H59.125V51.25H44.375V64Z" fill="#E2B228"/>
<mask id="mask1_2_426" style="mask-type:alpha" maskUnits="userSpaceOnUse" x="13" y="13" width="69" height="69">
<circle cx="47.4747" cy="47.5" r="32.5" stroke="white" stroke-linecap="round" stroke-dasharray="1 5"/>
<path d="M47.4873 81.9748C40.6664 81.9748 33.9986 79.9521 28.3272 76.1626C22.6558 72.3731 18.2354 66.9869 15.6252 60.6851C13.0149 54.3834 12.3319 47.4491 13.6626 40.7592C14.9933 34.0693 18.2779 27.9243 23.1011 23.1011C27.9242 18.278 34.0693 14.9934 40.7592 13.6627C47.4491 12.332 54.3834 13.0149 60.6851 15.6252C66.9868 18.2355 72.373 22.6558 76.1626 28.3272C79.9521 33.9986 81.9747 40.6664 81.9747 47.4874L78.5203 47.4874C78.5203 41.3496 76.7003 35.3497 73.2903 30.2464C69.8804 25.143 65.0337 21.1655 59.3632 18.8166C53.6926 16.4678 47.4529 15.8533 41.4331 17.0507C35.4133 18.2481 29.8838 21.2037 25.5437 25.5437C21.2037 29.8838 18.2481 35.4133 17.0507 41.4331C15.8532 47.453 16.4678 53.6927 18.8166 59.3632C21.1654 65.0337 25.143 69.8804 30.2463 73.2904C35.3497 76.7003 41.3496 78.5204 47.4873 78.5204L47.4873 81.9748Z" fill="#E2B228"/>
<circle cx="72" cy="68" r="3" fill="white"/>
<path d="M44.375 64H35.375V29H63.125V36H44.375V44.25H59.125V51.25H44.375V64Z" fill="#E2B228"/>
</mask>
<g mask="url(#mask1_2_426)">
</g>
<defs>
<filter id="filter0_f_2_426" x="-6.10352e-05" y="0" width="94.9748" height="115" filterUnits="userSpaceOnUse" color-interpolation-filters="sRGB">
<feFlood flood-opacity="0" result="BackgroundImageFix"/>
<feBlend mode="normal" in="SourceGraphic" in2="BackgroundImageFix" result="shape"/>
<feGaussianBlur stdDeviation="6.5" result="effect1_foregroundBlur_2_426"/>
</filter>
<filter id="filter1_d_2_426" x="10.4747" y="14.5" width="74" height="74" filterUnits="userSpaceOnUse" color-interpolation-filters="sRGB">
<feFlood flood-opacity="0" result="BackgroundImageFix"/>
<feColorMatrix in="SourceAlpha" type="matrix" values="0 0 0 0 0 0 0 0 0 0 0 0 0 0 0 0 0 0 127 0" result="hardAlpha"/>
<feOffset dy="4"/>
<feGaussianBlur stdDeviation="2"/>
<feComposite in2="hardAlpha" operator="out"/>
<feColorMatrix type="matrix" values="0 0 0 0 0 0 0 0 0 0 0 0 0 0 0 0 0 0 0.25 0"/>
<feBlend mode="normal" in2="BackgroundImageFix" result="effect1_dropShadow_2_426"/>
<feBlend mode="normal" in="SourceGraphic" in2="effect1_dropShadow_2_426" result="shape"/>
</filter>
<filter id="filter2_d_2_426" x="10.4747" y="14.5" width="74" height="74" filterUnits="userSpaceOnUse" color-interpolation-filters="sRGB">
<feFlood flood-opacity="0" result="BackgroundImageFix"/>
<feColorMatrix in="SourceAlpha" type="matrix" values="0 0 0 0 0 0 0 0 0 0 0 0 0 0 0 0 0 0 127 0" result="hardAlpha"/>
<feOffset dy="4"/>
<feGaussianBlur stdDeviation="2"/>
<feComposite in2="hardAlpha" operator="out"/>
<feColorMatrix type="matrix" values="0 0 0 0 0 0 0 0 0 0 0 0 0 0 0 0 0 0 0.25 0"/>
<feBlend mode="normal" in2="BackgroundImageFix" result="effect1_dropShadow_2_426"/>
<feBlend mode="normal" in="SourceGraphic" in2="effect1_dropShadow_2_426" result="shape"/>
</filter>
</defs>
</svg>
